# xmcd
#
# Track frame offsets: 
#        150
#        25062
#        51182
#
# Disc length: 1123 seconds
#
# Revision: 2
# Processed by: cddbd v1.5.2PL0 Copyright (c) Steve Scherf et al.
# Submitted via: ExactAudioCopy v1.0b3
#
DISCID=1c046103
DTITLE=Various Artist - SUPER EUROBEAT VOL.83 BONUS DISC SUPER REMIX COLLECTI
DTITLE=ON 5
DYEAR=1997
DGENRE=Eurobeat
TTITLE0=EUROBEAT GIRLS - ROCKYDANCE (NEW GENERATION REMIX)
TTITLE1=KING and QUEEN - I LOVE YOU BABE (NEW GENERATION REMIX)
TTITLE2=NIKI NIKI feat. KAREN - BOOM BOOM BABY (AMKULADE REMIX)
EXTD=
EXTT0=
EXTT1=
EXTT2=
PLAYORDER=
